<svg xmlns="http://www.w3.org/2000/svg" viewBox="0 0 256.21 266.98"><defs><style>.cls-1{fill:#fff;}</style></defs><title>anchor-monogram-white</title><g id="Layer_2" data-name="Layer 2"><g id="Layer_1-2" data-name="Layer 1"><path class="cls-1" d="M135.61,176.51V69.81h0V50.7a25.9,25.9,0,1,0-14.94,0v1.88h0V85h0V251.8a119.64,119.64,0,0,1-78-35.66H22.66A134.77,134.77,0,0,0,128.1,267c2.42,0,4.83-.08,7.22-.2V267h.29V251.8l1.11-.08-1.11,0ZM128.1,38.35a13,13,0,1,1,13-13A13,13,0,0,1,128.1,38.35Z"/><path class="cls-1" d="M57,208.29v-11a2,2,0,0,0-2-2H25.27a1.38,1.38,0,0,0-.2,0H20.9a1.08,1.08,0,0,0-.19,0H16.45l-.19,0h-4l-.19,0H2a2,2,0,0,0-2,2v11a2,2,0,0,0,1.36,1.88H55.61A2,2,0,0,0,57,208.29Z"/><path class="cls-1" d="M141.58,84.76h55.36a2,2,0,0,0,2-2v-11a2,2,0,0,0-2-2H141.58Z"/><path class="cls-1" d="M59.27,84.76H84.14a52.78,52.78,0,0,0,30.55,90.33V159.74a37.62,37.62,0,0,1,0-74.2V69.81H59.27a2,2,0,0,0-2,2v11A2,2,0,0,0,59.27,84.76Z"/><path class="cls-1" d="M254.21,195.34H244.1a1.08,1.08,0,0,0-.19,0h-4a1.08,1.08,0,0,0-.19,0H235.5a1.25,1.25,0,0,0-.19,0h-4.17a1.2,1.2,0,0,0-.2,0H201.23a2,2,0,0,0-2,2v11a2,2,0,0,0,1.36,1.88h54.25a2,2,0,0,0,1.36-1.88v-11A2,2,0,0,0,254.21,195.34Z"/><path class="cls-1" d="M213.6,216.14a120.57,120.57,0,0,1-31.89,23.23,52.32,52.32,0,0,0,6.38-23.23c0-.67,0-1.34,0-2,0-.33,0-.65,0-1,0-1-.07-2-.14-3a52.9,52.9,0,0,0-46.4-48.49V177a37.62,37.62,0,0,1,0,74.19l-1.07.17,1.07-.11v15.29a51.43,51.43,0,0,0,5.3-.91,134.9,134.9,0,0,0,86.66-49.52H213.6Z"/><path class="cls-1" d="M27.76,210.67l-.3-.39h0Z"/><path class="cls-1" d="M228.44,210.67l.31-.39h0Z"/></g></g></svg>