<svg xmlns="http://www.w3.org/2000/svg" viewBox="0 0 36.67 36.67"><defs><style>.cls-1{fill:#212121;}</style></defs><title>icon-dribbble-black</title><g id="Layer_2" data-name="Layer 2"><g id="_06-SINGLE-WHITE" data-name="06-SINGLE-WHITE"><path id="Dribbble" class="cls-1" d="M35.23,11.2a18,18,0,0,0-1.69-3.11,18.77,18.77,0,0,0-2.23-2.72,18.65,18.65,0,0,0-2.72-2.23A17.72,17.72,0,0,0,22,.38,18.48,18.48,0,0,0,11.2,1.44a17.8,17.8,0,0,0-3.12,1.7A18.05,18.05,0,0,0,5.37,5.37,18.83,18.83,0,0,0,3.13,8.09,18.18,18.18,0,0,0,.37,14.65,18.59,18.59,0,0,0,.37,22a18.14,18.14,0,0,0,1.07,3.45,18.73,18.73,0,0,0,1.69,3.11,18.22,18.22,0,0,0,5,4.95A18.43,18.43,0,0,0,22,36.3a18.14,18.14,0,0,0,3.45-1.07,18.73,18.73,0,0,0,3.11-1.69,20,20,0,0,0,2.72-2.23,19.32,19.32,0,0,0,2.23-2.72,18.73,18.73,0,0,0,1.69-3.11,18.37,18.37,0,0,0,0-14.28ZM18.34,2.68A15.6,15.6,0,0,1,28.68,6.59c0,.06-2.27,3.45-8.18,5.67a81.16,81.16,0,0,0-5.85-9.14A15.47,15.47,0,0,1,18.34,2.68Zm-3.75.45h-.05Zm-2.93,1a94.32,94.32,0,0,1,5.81,9A57.62,57.62,0,0,1,3,15.11,15.68,15.68,0,0,1,11.66,4.18Zm-5,24.62a15.55,15.55,0,0,1-4-10.46c0-.17,0-.33,0-.5a57.38,57.38,0,0,0,16.08-2.23c.45.88.88,1.77,1.27,2.66l-.62.19C11,21.19,6.68,28.79,6.68,28.79ZM18.34,34a15.63,15.63,0,0,1-9.78-3.43,2,2,0,0,0-.2-.16,2,2,0,0,1,.2.16l.15.11s3-6.54,12.29-9.78l.11,0a65,65,0,0,1,3.34,11.89A15.73,15.73,0,0,1,18.34,34Zm8.75-2.67A67,67,0,0,0,24,20.14a22.79,22.79,0,0,1,9.76.68A15.71,15.71,0,0,1,27.09,31.33Zm-4-13.66c-.12-.27-.23-.54-.34-.81-.33-.77-.68-1.53-1-2.27,6.18-2.53,8.69-6.15,8.72-6.2A15.55,15.55,0,0,1,34,18.18,36.07,36.07,0,0,0,23.09,17.67Z"/></g></g></svg>